<?xml version="1.0" encoding="UTF-8"?>
<svg version="1.1" xmlns="http://www.w3.org/2000/svg" width="150" height="150">
<path d="M0 0 C10.4880367 8.87569673 16.34533861 20.03824953 17.75 33.76953125 C18.15575453 46.99712892 14.38075816 59.36760919 5.33203125 69.25 C-5.36478562 79.34311645 -18.54926418 83.74187557 -33.14453125 83.375 C-42.71992586 82.42067736 -50.76894404 78.37816268 -58.6328125 73.02734375 C-60.210625 71.97546875 -60.210625 71.97546875 -61.8203125 70.90234375 C-70.74997677 62.90864996 -74.2482723 50.18418917 -75.9765625 38.75390625 C-76.58233889 26.78982258 -71.49292286 14.41687943 -64.0078125 5.33984375 C-46.9043184 -12.85878933 -19.93505933 -14.93650588 0 0 Z " fill="#D10101" transform="translate(103.6328125,37.97265625)"/>
<path d="M0 0 C4.20686484 -0.29133413 8.41114261 -0.46826779 12.625 -0.625 C14.40970703 -0.75068359 14.40970703 -0.75068359 16.23046875 -0.87890625 C19.74533665 -0.97708692 22.60863091 -0.94660005 26 0 C28.25842727 2.38995233 29.49877688 4.5831644 30.83422852 7.578125 C32.77525636 11.61058493 34.84024689 12.44890562 39 14 C44.40891178 14.91775759 49.25628133 14.2484325 54.0715332 11.58154297 C56.47788038 9.60808848 57.15716435 7.70883892 58.40234375 4.875 C60.32928884 1.53721805 61.15725506 0.23538471 64.91772461 -0.81494141 C68.45010001 -0.98507109 71.84756736 -0.87341075 75.375 -0.625 C76.58800781 -0.57988281 77.80101563 -0.53476563 79.05078125 -0.48828125 C82.03891724 -0.3706381 85.01691145 -0.20658508 88 0 C87.66105258 6.73571524 86.63101357 12.13996146 83.5 18.125 C83.14252686 18.81513184 82.78505371 19.50526367 82.41674805 20.21630859 C76.25008197 31.54754077 66.58986972 36.81358961 54.5546875 40.8125 C43.01785612 43.78974681 32.51643233 41.92204858 22.04296875 36.45703125 C12.96850082 31.03221253 7.6500871 24.89782756 3.0625 15.5 C2.60182129 14.57477539 2.60182129 14.57477539 2.13183594 13.63085938 C-0.06954115 8.82185337 -0.27995373 5.16486064 0 0 Z " fill="#FCFCFC" transform="translate(31,78)"/>
<path d="M0 0 C7.47605847 6.44783266 7.47605847 6.44783266 9.2265625 11.8515625 C8.11979167 10.71223958 7.01302083 9.57291667 5.90625 8.43359375 C0.93422148 3.75063665 -3.82328861 0.54310851 -9.9609375 -2.3984375 C-10.67185547 -2.7490625 -11.38277344 -3.0996875 -12.11523438 -3.4609375 C-21.72682943 -8.16275258 -31.8494141 -8.72733638 -42.0859375 -5.5234375 C-53.68959276 -1.05330453 -63.63962607 5.83622289 -68.96484375 17.45703125 C-70.76676067 22.79314271 -71.71166571 28.33034921 -72.7734375 33.8515625 C-63.8634375 33.8515625 -54.9534375 33.8515625 -45.7734375 33.8515625 C-45.7734375 32.2015625 -45.7734375 30.5515625 -45.7734375 28.8515625 C-42.83007348 23.56860145 -38.53614482 20.54063189 -32.7734375 18.8515625 C-26.43446128 18.14723181 -22.04009117 19.20196241 -16.7734375 22.8515625 C-14.60566973 24.76738631 -13.39300014 26.3716072 -11.7734375 28.8515625 C-11.7734375 30.5015625 -11.7734375 32.1515625 -11.7734375 33.8515625 C-2.5334375 33.8515625 6.7065625 33.8515625 16.2265625 33.8515625 C15.2365625 30.5515625 14.2465625 27.2515625 13.2265625 23.8515625 C13.5565625 22.5315625 13.8865625 21.2115625 14.2265625 19.8515625 C18.6487909 31.03874744 18.81158772 42.83141863 14.48046875 54.07421875 C8.88252383 66.47340516 0.98313818 74.76434803 -11.7734375 79.8515625 C-24.19800586 84.50608358 -36.65833777 84.30503537 -48.7734375 78.8515625 C-52.26068634 77.04866473 -55.52917416 75.05905946 -58.7734375 72.8515625 C-60.35125 71.7996875 -60.35125 71.7996875 -61.9609375 70.7265625 C-70.89060177 62.73286871 -74.3888973 50.00840792 -76.1171875 38.578125 C-76.72296389 26.61404133 -71.63354786 14.24109818 -64.1484375 5.1640625 C-47.10073431 -12.97520737 -19.74994379 -15.29925223 0 0 Z M-72.7734375 39.8515625 C-73.18950316 46.271886 -72.17076112 50.28158116 -69.1484375 55.9140625 C-68.78016846 56.616521 -68.41189941 57.31897949 -68.0324707 58.04272461 C-61.9832046 69.30828196 -53.91587787 75.81055203 -41.7734375 80.2890625 C-29.27702273 84.02510403 -17.51360916 81.44511214 -6.0234375 75.7265625 C4.38769824 69.75601871 10.545243 61.2776649 14.2265625 49.8515625 C14.70504296 46.52559985 15.00614428 43.20384334 15.2265625 39.8515625 C11.01969766 39.56022837 6.81541989 39.38329471 2.6015625 39.2265625 C1.41175781 39.14277344 0.22195312 39.05898437 -1.00390625 38.97265625 C-4.51856019 38.87448156 -7.38240484 38.90442276 -10.7734375 39.8515625 C-13.01551058 42.24464493 -14.24320304 44.4355027 -15.55883789 47.4296875 C-17.23137268 50.76467144 -19.243906 51.93872545 -22.6328125 53.296875 C-28.05742247 54.70252211 -32.21409213 54.43301332 -37.4609375 52.4765625 C-40.7138761 50.4592929 -41.61212543 48.16322389 -43.14453125 44.7265625 C-45.08533042 41.39404771 -45.93098952 40.08670686 -49.69311523 39.03662109 C-53.22481347 38.86642496 -56.62167375 38.97819886 -60.1484375 39.2265625 C-61.36144531 39.27167969 -62.57445312 39.31679687 -63.82421875 39.36328125 C-66.81235474 39.4809244 -69.79034895 39.64497742 -72.7734375 39.8515625 Z " fill="#080606" transform="translate(103.7734375,38.1484375)"/>
<path d="M0 0 C3.96 0 7.92 0 12 0 C12 10.64043666 7.52717777 20.33889635 0.92578125 28.59375 C-9.11344597 38.24328448 -22.81576939 42.43323141 -36.46875 42.203125 C-39.53917616 41.95673278 -42.17584743 41.22125517 -45 40 C-45 39.67 -45 39.34 -45 39 C-44.16597656 38.97421875 -43.33195312 38.9484375 -42.47265625 38.921875 C-29.87932673 38.28715965 -20.54626611 34.21680486 -11.73046875 25.03125 C-5.39100177 17.58988921 -2.49048549 9.34664556 0 0 Z " fill="#C9C9C9" transform="translate(107,78)"/>
<path d="M0 0 C3.1499635 2.62496958 4.07777898 4.96759659 5.25 8.875 C5.25 13.11826187 4.55229354 15.85982614 2 19.1875 C-1.19906778 22.3138617 -3.155471 23.79045323 -7.66796875 23.9375 C-11.61357447 23.7006156 -13.44060344 23.11713644 -16.625 20.625 C-19.69810552 16.64803992 -20.99871742 13.90163286 -20.6875 8.875 C-19.9992119 4.58332124 -18.21058912 2.54909159 -14.75 -0.125 C-9.72151657 -3.03622725 -5.22782293 -2.13865483 0 0 Z " fill="#BDBDBD" transform="translate(82.75,64.125)"/>
<path d="M0 0 C4.13501044 2.06750522 6.62139344 4.65308274 9.47265625 8.18359375 C10.98370181 10.0859333 10.98370181 10.0859333 13.04296875 11.71875 C15.71270717 14.83078042 16.39165201 18.15420238 17.25 22.0625 C17.42273438 22.78244141 17.59546875 23.50238281 17.7734375 24.24414062 C18.47065005 27.22389426 19 29.93075314 19 33 C15.04 33 11.08 33 7 33 C6.85304688 31.00839844 6.85304688 31.00839844 6.703125 28.9765625 C5.9460929 19.71976658 5.26485754 11.40047696 1 3 C0.67 2.01 0.34 1.02 0 0 Z " fill="#9E0000" transform="translate(101,39)"/>
<path d="M0 0 C4.45850936 0.79616239 5.90783917 1.93313458 8.5 5.625 C9.125 9.125 9.125 9.125 8.5 12.625 C5.90783917 16.31686542 4.45850936 17.45383761 0 18.25 C-4.45850936 17.45383761 -5.90783917 16.31686542 -8.5 12.625 C-9.125 9.125 -9.125 9.125 -8.5 5.625 C-5.90783917 1.93313458 -4.45850936 0.79616239 0 0 Z " fill="#FCF1F1" transform="translate(52.5,40.375)"/>
<path d="M0 0 C7.47605847 6.44783266 7.47605847 6.44783266 9.2265625 11.8515625 C8.11979167 10.71223958 7.01302083 9.57291667 5.90625 8.43359375 C0.93422148 3.75063665 -3.82328861 0.54310851 -9.9609375 -2.3984375 C-10.67185547 -2.7490625 -11.38277344 -3.0996875 -12.11523438 -3.4609375 C-21.72682943 -8.16275258 -31.8494141 -8.72733638 -42.0859375 -5.5234375 C-53.68959276 -1.05330453 -63.63962607 5.83622289 -68.96484375 17.45703125 C-70.76372144 22.78414247 -71.75021698 28.33237303 -72.7734375 33.8515625 C-73.4334375 33.5215625 -74.0934375 33.1915625 -74.7734375 32.8515625 C-74.25656006 20.47234775 -69.22064511 9.7280759 -60.1484375 1.1640625 C-42.48851835 -13.32785589 -18.17997509 -14.0830793 0 0 Z " fill="#100000" transform="translate(103.7734375,38.1484375)"/>
<path d="M0 0 C0.33 0 0.66 0 1 0 C1.06316406 0.55945313 1.12632813 1.11890625 1.19140625 1.6953125 C2.91107248 12.9546009 8.45099223 24.76493218 17.47265625 31.9765625 C29.60590198 39.69938256 40.66361778 42.92151726 54.875 39.9375 C65.13386642 37.0826269 75.20974131 32.24622461 81 23 C83.19524491 18.74224591 85.11870303 14.40328331 87 10 C87.65438251 8.660595 88.31539508 7.32421234 89 6 C90.53101708 10.59305124 88.46692526 13.56159054 86.578125 17.86328125 C80.54550325 29.85386359 71.43055732 36.52653586 59.015625 41.0546875 C46.34630164 45.02615933 33.96240771 43.6335394 22.2421875 37.57421875 C19.75519673 36.13770318 17.3739077 34.61528011 15 33 C13.948125 32.29875 12.89625 31.5975 11.8125 30.875 C5.07732432 24.92431921 0.4179329 14.78806766 -1 6 C-0.6875 2.375 -0.6875 2.375 0 0 Z " fill="#1C1C1C" transform="translate(30,78)"/>
<path d="M0 0 C2.5 2.1875 2.5 2.1875 4 5 C4.08104732 8.97131876 3.4688579 10.47755834 0.8125 13.4375 C-2 15 -2 15 -5.125 14.9375 C-9.31553861 13.57102002 -9.31553861 13.57102002 -11 11 C-12.11278259 7.34371434 -12.31948363 5.68460779 -10.6875 2.1875 C-7.50782533 -1.93430049 -4.8289459 -1.16560763 0 0 Z " fill="#D4D4D4" transform="translate(79,68)"/>
<path d="M0 0 C3.49359772 2.56197166 4.7868934 4.26744607 6 8.4375 C6 12.57869627 5.36368768 14.61204767 3 18 C-0.58466458 20.13142218 -3.88622755 20.59992515 -8 20 C-10.8125 17.5625 -10.8125 17.5625 -13 15 C-13.33 14.67 -13.66 14.34 -14 14 C-14.04432382 9.62967101 -13.77940622 6.03920829 -11.125 2.5 C-7.49862196 -0.05979627 -4.34958721 -0.52195047 0 0 Z M-11 6 C-11.91533918 9.13830576 -12.27169252 11.11082448 -11.3125 14.25 C-9.66507222 16.44657038 -8.63550724 17.19470612 -6 18 C-2.09871003 17.91872313 -0.48673302 17.43681169 2.4375 14.8125 C4.23699065 12.08984175 4.23699065 12.08984175 4.0625 8.9375 C2.72765196 5.24703777 1.36063527 3.98582993 -2 2 C-6.45779687 1.13018598 -8.35587466 2.41154418 -11 6 Z " fill="#1D1D1D" transform="translate(79,65)"/>
<path d="M0 0 C2.54966714 2.03973371 3.26754839 3.65561732 4.1875 6.75 C3.5275 6.75 2.8675 6.75 2.1875 6.75 C1.8575 7.41 1.5275 8.07 1.1875 8.75 C1.105 7.96625 1.0225 7.1825 0.9375 6.375 C0.46898083 3.66316086 0.46898083 3.66316086 -1.57421875 2.57421875 C-4.11305043 1.63932611 -5.70099198 1.62530617 -8.375 1.9375 C-9.13941406 2.01355469 -9.90382813 2.08960937 -10.69140625 2.16796875 C-14.41917581 3.19087421 -15.72085129 5.61252693 -17.8125 8.75 C-18.4725 7.43 -19.1325 6.11 -19.8125 4.75 C-13.62005739 -1.9732234 -8.71576765 -3.87367451 0 0 Z " fill="#B5B5B5" transform="translate(82.8125,64.25)"/>
<path d="M0 0 C0.165 0.639375 0.33 1.27875 0.5 1.9375 C1.97312978 4.40948842 1.97312978 4.40948842 5.75 5.0625 C9.21215509 5.36575446 10.8440855 4.7884093 13.5 2.5625 C14.325 1.716875 15.15 0.87125 16 0 C16.33 0.99 16.66 1.98 17 3 C15.23320274 5.38133544 13.76007605 6.78801549 10.87109375 7.59375 C7.27003132 8.11581506 4.80923819 8.3552753 1.4375 6.875 C-0.41566674 4.457826 -0.32152137 2.9740727 0 0 Z " fill="#202020" transform="translate(67,77)"/>
<path d="M0 0 C2.00720923 0.28674418 4.0085944 0.61866701 6 1 C5.67 2.65 5.34 4.3 5 6 C3.35 6.33 1.7 6.66 0 7 C-0.38133299 5.0085944 -0.71325582 3.00720923 -1 1 C-0.67 0.67 -0.34 0.34 0 0 Z " fill="#F9DFDF" transform="translate(60,36)"/>
<path d="M0 0 C0.33 0 0.66 0 1 0 C1.10957031 0.61746094 1.21914063 1.23492187 1.33203125 1.87109375 C2.4377266 7.77712501 3.95361435 13.35197559 6 19 C5.01 18.67 4.02 18.34 3 18 C1.796875 15.48828125 1.796875 15.48828125 0.75 12.3125 C0.39421875 11.27738281 0.0384375 10.24226563 -0.328125 9.17578125 C-1.05355628 5.74685316 -0.7923371 3.387749 0 0 Z " fill="#262626" transform="translate(30,78)"/>
<path d="M0 0 C-0.99 0.66 -1.98 1.32 -3 2 C-5.80704474 4.31768101 -6.5181754 6.13493099 -7.1875 9.6875 C-7.42533203 10.89986328 -7.42533203 10.89986328 -7.66796875 12.13671875 C-7.77753906 12.75160156 -7.88710937 13.36648437 -8 14 C-8.66 13.67 -9.32 13.34 -10 13 C-9.65646369 4.96125041 -9.65646369 4.96125041 -7.25 1.4375 C-4.59984971 -0.25565158 -3.08799987 -0.3431111 0 0 Z " fill="#151515" transform="translate(75,66)"/>
<path d="M0 0 C1.32 0.66 2.64 1.32 4 2 C2.8553125 2.86625 2.8553125 2.86625 1.6875 3.75 C-0.66200917 5.71703093 -2.29323505 7.48476744 -4 10 C-4.66 8.68 -5.32 7.36 -6 6 C-4 4 -2 2 0 0 Z " fill="#AAAAAA" transform="translate(69,63)"/>
<path d="M0 0 C0.66 0.33 1.32 0.66 2 1 C-1.9700218 5.21814817 -6.30840284 8.61227103 -11 12 C-9.49650623 8.33213607 -7.36271208 6.31089607 -4.375 3.75 C-3.14910156 2.69039062 -3.14910156 2.69039062 -1.8984375 1.609375 C-1.27195312 1.07828125 -0.64546875 0.5471875 0 0 Z " fill="#B60101" transform="translate(50,37)"/>
<path d="M0 0 C0.33 0 0.66 0 1 0 C1.33 3.3 1.66 6.6 2 10 C1.01 10 0.02 10 -1 10 C-2.25 3.375 -2.25 3.375 0 0 Z " fill="#CECECE" transform="translate(64,70)"/>
<path d="M0 0 C3.6875 0.3125 3.6875 0.3125 7 1 C6.67 1.99 6.34 2.98 6 4 C3.03 3.67 0.06 3.34 -3 3 C-2.01 2.01 -1.02 1.02 0 0 Z " fill="#CECECE" transform="translate(73,62)"/>
<path d="M0 0 C2.64 0 5.28 0 8 0 C8 0.66 8 1.32 8 2 C5.69 2.33 3.38 2.66 1 3 C0.67 2.01 0.34 1.02 0 0 Z " fill="#CACACA" transform="translate(71,85)"/>
<path d="M0 0 C0.66 0 1.32 0 2 0 C3.125 5.75 3.125 5.75 2 8 C1.34 8 0.68 8 0 8 C0 5.36 0 2.72 0 0 Z " fill="#D0D0D0" transform="translate(85,71)"/>
<path d="M0 0 C0.66 0.99 1.32 1.98 2 3 C0.68 4.32 -0.64 5.64 -2 7 C-2.99 6.34 -3.98 5.68 -5 5 C-3.35 3.35 -1.7 1.7 0 0 Z " fill="#2D2D2D" transform="translate(82,77)"/>
<path d="" fill="#000000" transform="translate(0,0)"/>
</svg>
